HIERARCHY
ROOT Hips
{
	OFFSET 0.000000 0.000000 0.000000
	CHANNELS 6 Xposition Yposition Zposition Yrotation Xrotation Zrotation
	JOINT Chest
	{
		OFFSET 0.000000 -0.009281 11.569106
		CHANNELS 3 Yrotation Xrotation Zrotation
		JOINT Chest2
		{
			OFFSET -0.000000 0.016865 9.269641
			CHANNELS 3 Yrotation Xrotation Zrotation
			JOINT Chest3
			{
				OFFSET -0.000000 0.000001 8.374491
				CHANNELS 3 Yrotation Xrotation Zrotation
				JOINT Chest4
				{
					OFFSET -0.000000 0.000001 8.374493
					CHANNELS 3 Yrotation Xrotation Zrotation
					JOINT Neck
					{
						OFFSET -0.000000 0.000002 12.152554
						CHANNELS 3 Yrotation Xrotation Zrotation
						JOINT Head
						{
							OFFSET -0.000000 0.040101 7.802319
							CHANNELS 3 Yrotation Xrotation Zrotation
							End Site
							{
								OFFSET -0.000000 0.020947 14.853096
							}
						}
					}
					JOINT RightCollar
					{
						OFFSET 2.894404 0.000001 6.791374
						CHANNELS 3 Yrotation Xrotation Zrotation
						JOINT RightShoulder
						{
							OFFSET 13.574684 0.000001 0.000000
							CHANNELS 3 Yrotation Xrotation Zrotation
							JOINT RightElbow
							{
								OFFSET 23.923903 0.000002 0.000000
								CHANNELS 3 Yrotation Xrotation Zrotation
								JOINT RightWrist
								{
									OFFSET 19.846718 0.012767 0.000000
									CHANNELS 3 Yrotation Xrotation Zrotation
									End Site
									{
										OFFSET 14.973145 0.000001 0.000000
									}
								}
							}
						}
					}
					JOINT LeftCollar
					{
						OFFSET -2.894404 0.000001 6.791374
						CHANNELS 3 Yrotation Xrotation Zrotation
						JOINT LeftShoulder
						{
							OFFSET -13.574684 -0.000001 0.000000
							CHANNELS 3 Yrotation Xrotation Zrotation
							JOINT LeftElbow
							{
								OFFSET -23.923903 -0.000002 0.000000
								CHANNELS 3 Yrotation Xrotation Zrotation
								JOINT LeftWrist
								{
									OFFSET -19.846718 0.012763 0.000000
									CHANNELS 3 Yrotation Xrotation Zrotation
									End Site
									{
										OFFSET -14.973145 -0.000001 0.000000
									}
								}
							}
						}
					}
				}
			}
		}
	}
	JOINT RightHip
	{
		OFFSET 9.469263 0.004643 0.045487
		CHANNELS 3 Yrotation Xrotation Zrotation
		JOINT RightKnee
		{
			OFFSET 0.000000 0.002661 -40.478676
			CHANNELS 3 Yrotation Xrotation Zrotation
			JOINT RightAnkle
			{
				OFFSET 0.000000 0.049106 -35.224068
				CHANNELS 3 Yrotation Xrotation Zrotation
				JOINT RightToe
				{
					OFFSET -0.000001 12.539529 -6.151390
					CHANNELS 3 Yrotation Xrotation Zrotation
					End Site
					{
						OFFSET -0.000001 5.044994 -1.291870
					}
				}
			}
		}
	}
	JOINT LeftHip
	{
		OFFSET -9.469263 0.004641 0.045487
		CHANNELS 3 Yrotation Xrotation Zrotation
		JOINT LeftKnee
		{
			OFFSET 0.000000 0.002661 -40.478676
			CHANNELS 3 Yrotation Xrotation Zrotation
			JOINT LeftAnkle
			{
				OFFSET 0.000000 0.049106 -35.224068
				CHANNELS 3 Yrotation Xrotation Zrotation
				JOINT LeftToe
				{
					OFFSET -0.000001 12.539529 -6.151390
					CHANNELS 3 Yrotation Xrotation Zrotation
					End Site
					{
						OFFSET -0.000001 5.044994 -1.291870
					}
				}
			}
		}
	}
}
MOTION
Frames: 5
Frame Time: 0.016667
4.401666 5.195734 82.334442 -3.872905 0.358608 -103.175595 -1.310876 -4.897450 0.431505 -0.488676 -2.058825 0.107483 -0.488676 -2.058825 0.107481 -0.366105 -1.544205 0.078957 1.634937 -19.375496 -2.788194 2.110698 0.211829 -4.582979 9.502616 7.504991 0.845819 42.659944 -14.879627 -17.245399 -45.177446 -63.768115 108.625553 -64.279402 38.477471 34.599437 -8.709936 3.540665 -5.108844 -41.301355 -14.457854 20.376500 16.012110 -61.753707 -76.367949 36.337624 25.224416 -68.138718 2.721351 1.052678 -18.727593 6.703208 -7.973390 -9.568964 -1.581628 8.313640 0.107756 0.058396 -0.040659 0.146679 2.700689 -1.821661 18.368315 -8.812337 -35.063848 26.378103 35.486050 -55.758256 -15.117403 -91.990019 65.727532 -69.452724 
4.268564 5.182742 82.334045 -3.838343 0.407299 -103.242284 -1.385709 -4.897943 0.615148 -0.487815 -2.047673 0.104681 -0.487815 -2.047674 0.104682 -0.365472 -1.535840 0.076868 1.616688 -19.619522 -2.726103 2.102675 -0.241182 -4.474930 9.502306 7.504475 0.840577 42.652865 -14.852412 -17.265368 -45.248897 -63.781946 108.728415 -64.240709 38.454703 34.618930 -8.718579 3.542742 -5.104986 -41.303438 -14.432502 20.409449 16.017511 -61.783740 -76.336045 36.304935 25.215919 -68.142222 2.677888 1.240187 -18.171367 6.839479 -8.008597 -9.784460 -1.788733 8.233199 -0.183768 0.109712 -0.019822 0.226993 2.689673 -1.822976 18.747616 -9.063051 -34.874321 26.680852 36.364310 -55.088167 -15.090371 -91.565905 65.163925 -68.444615 
4.082336 5.216195 82.338264 -3.761196 0.493839 -103.102484 -1.467093 -4.842820 0.603558 -0.484340 -2.040215 0.096985 -0.484339 -2.040215 0.096984 -0.362893 -1.530240 0.071115 1.595380 -19.890920 -2.660127 2.090580 -0.745081 -4.360940 9.496849 7.482895 0.832420 42.643081 -14.772065 -17.286826 -45.340165 -63.813993 108.845792 -64.204611 38.436189 34.650123 -8.744053 3.531542 -5.098501 -41.268877 -14.459871 20.420886 15.958701 -61.830991 -76.271459 36.306120 25.227317 -68.146013 2.594899 1.488414 -17.859189 6.960389 -8.015960 -9.935145 -1.996710 8.145881 -0.505099 0.167096 -0.031496 0.314735 2.655399 -1.810027 18.855215 -9.399732 -34.600663 27.317260 37.315267 -54.255635 -15.084411 -90.974670 64.481972 -67.249291 
3.906050 5.265615 82.351562 -3.786691 0.607062 -103.014436 -1.601790 -4.878237 0.661527 -0.479307 -2.041367 0.083045 -0.479307 -2.041368 0.083044 -0.359165 -1.531091 0.060676 1.571166 -20.170283 -2.590259 2.074186 -1.263858 -4.240979 9.487584 7.438656 0.818043 42.654251 -14.698456 -17.289333 -45.401388 -63.795374 108.909907 -64.176526 38.427945 34.675675 -8.750590 3.470517 -5.104878 -41.237995 -14.490706 20.405183 15.923650 -61.845690 -76.243892 36.334994 25.226122 -68.145726 2.467650 1.645815 -17.566410 7.044494 -8.023724 -9.916804 -2.215581 8.054949 -0.943788 0.237619 -0.059996 0.426181 2.490665 -1.914904 19.106674 -9.575164 -34.190728 27.863342 38.160072 -53.494742 -15.056404 -90.299315 63.837960 -66.033231 
3.716143 5.337524 82.372040 -3.858224 0.705975 -102.843695 -1.730123 -4.971270 0.658633 -0.470204 -2.052299 0.064908 -0.470204 -2.052300 0.064909 -0.352397 -1.539277 0.047098 1.543588 -20.441020 -2.518447 2.051673 -1.766688 -4.118721 9.483993 7.405473 0.799995 42.677272 -14.664184 -17.289608 -45.439322 -63.704368 108.927898 -64.152927 38.426323 34.697631 -8.732936 3.372677 -5.124439 -41.227032 -14.515819 20.346591 15.948282 -61.833791 -76.270667 36.397115 25.216874 -68.103174 2.344345 1.761115 -17.365473 7.117864 -8.022033 -9.820351 -2.477328 7.942725 -1.486847 0.341380 -0.089355 0.595893 2.287289 -2.086551 19.405264 -9.582118 -33.755512 28.144580 38.824738 -52.713515 -14.853853 -89.519751 63.181135 -64.732011 
